<svg xmlns="http://www.w3.org/2000/svg" xmlns:xlink="http://www.w3.org/1999/xlink" version="1.1" width="256" height="256" viewBox="0 0 256 256" xml:space="preserve">
<g style="stroke: none; stroke-width: 0; stroke-dasharray: none; stroke-linecap: butt; stroke-linejoin: miter; stroke-miterlimit: 10; fill: none; fill-rule: nonzero; opacity: 1;" transform="translate(1.4065934065934016 1.4065934065934016) scale(2.81 2.81)">
	<path d="M 87.702 37.685 c -0.063 -0.324 -0.151 -0.644 -0.293 -0.946 c -0.111 -0.237 -0.247 -0.464 -0.406 -0.679 c -0.159 -0.215 -0.342 -0.417 -0.549 -0.602 l -4.138 -3.711 c -1.655 -1.484 -4.199 -1.346 -5.684 0.309 l -2.213 2.467 V 12.707 c 0 -2.938 -2.382 -5.321 -5.321 -5.321 H 14.926 c -2.938 0 -5.321 2.382 -5.321 5.321 v 71.973 c 0 2.938 2.382 5.321 5.321 5.321 h 54.173 c 2.938 0 5.321 -2.382 5.321 -5.321 V 54.903 l 5.945 -6.628 l 6.398 -7.134 c 0.185 -0.207 0.346 -0.428 0.481 -0.658 c 0.135 -0.231 0.245 -0.472 0.33 -0.719 C 87.804 39.091 87.836 38.374 87.702 37.685 z" style="stroke: none; stroke-width: 1; stroke-dasharray: none; stroke-linecap: butt; stroke-linejoin: miter; stroke-miterlimit: 10; fill: rgb(159,221,122); fill-rule: nonzero; opacity: 1;" transform=" matrix(1 0 0 1 0 0) " stroke-linecap="round"/>
	<path d="M 40.121 70.448 c -0.243 0 -0.481 -0.089 -0.667 -0.256 c -0.267 -0.239 -0.385 -0.604 -0.311 -0.954 l 2.869 -13.389 c 0.037 -0.17 0.117 -0.328 0.233 -0.458 l 27.257 -30.39 c 0.896 -1 2.127 -1.59 3.467 -1.663 c 1.342 -0.073 2.629 0.38 3.629 1.277 l 4.138 3.71 c 0.255 0.23 0.484 0.482 0.685 0.752 c 0.196 0.265 0.367 0.55 0.507 0.848 c 0.163 0.349 0.284 0.735 0.37 1.183 c 0.172 0.884 0.115 1.781 -0.165 2.593 c -0.107 0.313 -0.247 0.617 -0.413 0.9 c -0.169 0.289 -0.371 0.566 -0.599 0.82 L 53.864 65.813 c -0.116 0.13 -0.265 0.227 -0.43 0.281 l -12.999 4.303 C 40.332 70.432 40.227 70.448 40.121 70.448 z M 43.912 56.529 L 41.465 67.95 l 11.089 -3.671 l 27.078 -30.192 c 0.138 -0.153 0.259 -0.32 0.361 -0.495 c 0.1 -0.171 0.183 -0.352 0.247 -0.54 c 0.166 -0.482 0.198 -1.022 0.094 -1.563 c 0 0 0 0 0 -0.001 c -0.056 -0.284 -0.126 -0.517 -0.218 -0.712 c -0.083 -0.177 -0.186 -0.348 -0.304 -0.508 c -0.12 -0.163 -0.26 -0.315 -0.414 -0.455 l -4.137 -3.709 c -0.601 -0.54 -1.38 -0.807 -2.184 -0.769 c -0.808 0.044 -1.549 0.399 -2.088 1 L 43.912 56.529 z M 53.12 65.146 h 0.01 H 53.12 z" style="stroke: none; stroke-width: 1; stroke-dasharray: none; stroke-linecap: butt; stroke-linejoin: miter; stroke-miterlimit: 10; fill: rgb(0,0,0); fill-rule: nonzero; opacity: 1;" transform=" matrix(1 0 0 1 0 0) " stroke-linecap="round"/>
	<path d="M 62.713 84.613 H 8.539 c -3.485 0 -6.32 -2.835 -6.32 -6.32 V 6.32 C 2.219 2.835 5.055 0 8.539 0 h 54.173 c 3.485 0 6.32 2.835 6.32 6.32 v 10.444 c 0 0.552 -0.447 1 -1 1 s -1 -0.448 -1 -1 V 6.32 c 0 -2.382 -1.938 -4.32 -4.32 -4.32 H 8.539 c -2.382 0 -4.32 1.938 -4.32 4.32 v 71.973 c 0 2.382 1.938 4.32 4.32 4.32 h 54.173 c 2.382 0 4.32 -1.938 4.32 -4.32 V 60.521 c 0 -0.553 0.447 -1 1 -1 s 1 0.447 1 1 v 17.771 C 69.033 81.778 66.198 84.613 62.713 84.613 z" style="stroke: none; stroke-width: 1; stroke-dasharray: none; stroke-linecap: butt; stroke-linejoin: miter; stroke-miterlimit: 10; fill: rgb(0,0,0); fill-rule: nonzero; opacity: 1;" transform=" matrix(1 0 0 1 0 0) " stroke-linecap="round"/>
	<path d="M 55.643 16.165 H 15.61 c -0.552 0 -1 -0.448 -1 -1 s 0.448 -1 1 -1 h 40.033 c 0.553 0 1 0.448 1 1 S 56.195 16.165 55.643 16.165 z" style="stroke: none; stroke-width: 1; stroke-dasharray: none; stroke-linecap: butt; stroke-linejoin: miter; stroke-miterlimit: 10; fill: rgb(0,0,0); fill-rule: nonzero; opacity: 1;" transform=" matrix(1 0 0 1 0 0) " stroke-linecap="round"/>
	<path d="M 51.385 34.26 H 15.61 c -0.552 0 -1 -0.448 -1 -1 s 0.448 -1 1 -1 h 35.775 c 0.553 0 1 0.448 1 1 S 51.937 34.26 51.385 34.26 z" style="stroke: none; stroke-width: 1; stroke-dasharray: none; stroke-linecap: butt; stroke-linejoin: miter; stroke-miterlimit: 10; fill: rgb(0,0,0); fill-rule: nonzero; opacity: 1;" transform=" matrix(1 0 0 1 0 0) " stroke-linecap="round"/>
	<path d="M 35.419 52.354 H 15.61 c -0.552 0 -1 -0.447 -1 -1 s 0.448 -1 1 -1 h 19.809 c 0.552 0 1 0.447 1 1 S 35.971 52.354 35.419 52.354 z" style="stroke: none; stroke-width: 1; stroke-dasharray: none; stroke-linecap: butt; stroke-linejoin: miter; stroke-miterlimit: 10; fill: rgb(0,0,0); fill-rule: nonzero; opacity: 1;" transform=" matrix(1 0 0 1 0 0) " stroke-linecap="round"/>
	<path d="M 31.162 70.448 H 15.61 c -0.552 0 -1 -0.447 -1 -1 s 0.448 -1 1 -1 h 15.552 c 0.552 0 1 0.447 1 1 S 31.714 70.448 31.162 70.448 z" style="stroke: none; stroke-width: 1; stroke-dasharray: none; stroke-linecap: butt; stroke-linejoin: miter; stroke-miterlimit: 10; fill: rgb(0,0,0); fill-rule: nonzero; opacity: 1;" transform=" matrix(1 0 0 1 0 0) " stroke-linecap="round"/>
</g>
</svg>